<svg width="20" height="20" viewBox="0 0 20 20" fill="none" xmlns="http://www.w3.org/2000/svg">
<path d="M8.5905 11.41C9.0005 11.8 9.0005 12.44 8.5905 12.83C8.2005 13.22 7.5605 13.22 7.1705 12.83C6.23388 11.892 5.70781 10.6206 5.70781 9.29498C5.70781 7.96941 6.23388 6.69801 7.1705 5.75999L10.7105 2.21999C11.6485 1.28336 12.9199 0.757294 14.2455 0.757294C15.5711 0.757294 16.8425 1.28336 17.7805 2.21999C18.7171 3.15801 19.2432 4.42941 19.2432 5.75499C19.2432 7.08056 18.7171 8.35196 17.7805 9.28999L16.2905 10.78C16.3005 9.95999 16.1705 9.13998 15.8905 8.35998L16.3605 7.87999C16.6408 7.60267 16.8634 7.27251 17.0153 6.90862C17.1672 6.54472 17.2454 6.15431 17.2454 5.75999C17.2454 5.36566 17.1672 4.97525 17.0153 4.61135C16.8634 4.24746 16.6408 3.9173 16.3605 3.63999C16.0832 3.35965 15.753 3.13709 15.3891 2.9852C15.0252 2.83332 14.6348 2.75511 14.2405 2.75511C13.8462 2.75511 13.4558 2.83332 13.0919 2.9852C12.728 3.13709 12.3978 3.35965 12.1205 3.63999L8.5905 7.16999C8.31017 7.4473 8.08761 7.77746 7.93572 8.14136C7.78383 8.50525 7.70563 8.89566 7.70563 9.28999C7.70563 9.68431 7.78383 10.0747 7.93572 10.4386C8.08761 10.8025 8.31017 11.1327 8.5905 11.41M11.4105 7.16999C11.8005 6.77999 12.4405 6.77999 12.8305 7.16999C13.7671 8.10801 14.2932 9.37941 14.2932 10.705C14.2932 12.0306 13.7671 13.302 12.8305 14.24L9.2905 17.78C8.35248 18.7166 7.08108 19.2427 5.7555 19.2427C4.42993 19.2427 3.15853 18.7166 2.2205 17.78C1.28388 16.842 0.757812 15.5706 0.757812 14.245C0.757812 12.9194 1.28388 11.648 2.2205 10.71L3.7105 9.21999C3.7005 10.04 3.8305 10.86 4.1105 11.65L3.6405 12.12C3.36017 12.3973 3.13761 12.7275 2.98572 13.0914C2.83383 13.4553 2.75563 13.8457 2.75563 14.24C2.75563 14.6343 2.83383 15.0247 2.98572 15.3886C3.13761 15.7525 3.36017 16.0827 3.6405 16.36C3.91782 16.6403 4.24798 16.8629 4.61187 17.0148C4.97577 17.1667 5.36618 17.2449 5.7605 17.2449C6.15483 17.2449 6.54524 17.1667 6.90913 17.0148C7.27303 16.8629 7.60319 16.6403 7.8805 16.36L11.4105 12.83C11.6908 12.5527 11.9134 12.2225 12.0653 11.8586C12.2172 11.4947 12.2954 11.1043 12.2954 10.71C12.2954 10.3157 12.2172 9.92525 12.0653 9.56136C11.9134 9.19746 11.6908 8.8673 11.4105 8.58999C11.3134 8.49898 11.236 8.38901 11.183 8.26689C11.1301 8.14477 11.1028 8.01308 11.1028 7.87999C11.1028 7.74689 11.1301 7.6152 11.183 7.49308C11.236 7.37096 11.3134 7.26099 11.4105 7.16999V7.16999Z" fill="black"/>
</svg>
